<svg id="Lager_1" data-name="Lager 1" xmlns="http://www.w3.org/2000/svg" viewBox="0 0 121.89 89.29"><defs><style>.cls-1,.cls-2{fill:#fff;}.cls-2{stroke:#fff;stroke-miterlimit:10;stroke-width:0.25px;}</style></defs><path class="cls-1" d="M78.92,10.83a4.38,4.38,0,1,1,1.31.11m0,0L78.78,27.72a.35.35,0,0,1-.37.31L77.79,28a.33.33,0,0,1-.31-.36l1.44-16.78"/><path class="cls-1" d="M78.46,28.15H78.4l-.63,0a.47.47,0,0,1-.42-.51l1.44-16.67a4.47,4.47,0,1,1,1.55.14L78.91,27.73A.47.47,0,0,1,78.46,28.15Zm.46-17.32h.13L77.6,27.62a.21.21,0,0,0,.05.15.22.22,0,0,0,.15.08l.62,0a.19.19,0,0,0,.16,0,.2.2,0,0,0,.08-.14L80.1,10.93h.13v-.12A4.24,4.24,0,1,0,79,10.71Z"/><path class="cls-1" d="M57.66,16.2a4.37,4.37,0,1,1,1.11-.7m0,0,8.95,14.27a.34.34,0,0,1-.11.47l-.54.33a.34.34,0,0,1-.46-.1l-9-14.27"/><path class="cls-1" d="M66.92,30.75h-.13a.47.47,0,0,1-.29-.21L57.61,16.36a4.5,4.5,0,1,1,1.32-.83L67.82,29.7a.46.46,0,0,1-.15.64l-.53.34A.47.47,0,0,1,66.92,30.75ZM57.76,16.13,66.71,30.4a.19.19,0,0,0,.14.09.18.18,0,0,0,.16,0l.53-.34a.22.22,0,0,0,.07-.3l-9-14.26.11-.07-.08-.09a4.24,4.24,0,0,0-5-6.79,4.18,4.18,0,0,0-1.87,2.65,4.23,4.23,0,0,0,5.82,4.82l0,.11Z"/><path class="cls-1" d="M43.7,33a4.38,4.38,0,1,1,.51-1.21m0,0L59.72,38.3a.35.35,0,0,1,.18.45l-.25.58a.34.34,0,0,1-.44.18L43.7,33"/><path class="cls-1" d="M59.36,39.66a.46.46,0,0,1-.2,0L43.75,33.11a4.49,4.49,0,1,1,.61-1.44l15.41,6.52a.48.48,0,0,1,.25.61l-.25.58A.45.45,0,0,1,59.36,39.66ZM43.75,32.84,59.26,39.4a.22.22,0,0,0,.28-.12l.24-.58a.21.21,0,0,0-.11-.28L44.16,31.86l.05-.12-.12,0a4.24,4.24,0,1,0-.5,1.18l.11.06Z"/><path class="cls-1" d="M94.23,76.77,85.54,62.35a.34.34,0,0,1,.12-.47l.54-.33a.34.34,0,0,1,.46.12l8.69,14.42m0,0a4.38,4.38,0,1,1-1.12.68"/><path class="cls-1" d="M97.22,84.61a4.51,4.51,0,0,1-4-2.16,4.46,4.46,0,0,1,.9-5.71L85.44,62.41a.43.43,0,0,1-.06-.35.51.51,0,0,1,.21-.29l.54-.32a.45.45,0,0,1,.64.16l8.64,14.33a4.45,4.45,0,0,1,5.45,1.85A4.5,4.5,0,0,1,99.34,84,4.56,4.56,0,0,1,97.22,84.61Zm-3-7.84.08.1a4.21,4.21,0,0,0-.93,5.45,4.25,4.25,0,1,0,2-6.11l-.05-.12-.1.07L86.56,61.73a.23.23,0,0,0-.14-.09.18.18,0,0,0-.16,0l-.54.33a.2.2,0,0,0-.07.29l8.69,14.43Z"/><path class="cls-1" d="M108.86,60.52,93.35,54a.35.35,0,0,1-.18-.45l.25-.58a.34.34,0,0,1,.44-.18l15.51,6.56m0,0a4.37,4.37,0,1,1-.51,1.21"/><path class="cls-1" d="M113.28,66.08a4.48,4.48,0,0,1-4.56-5.49L93.3,54.07a.51.51,0,0,1-.25-.25.5.5,0,0,1,0-.36l.24-.58a.49.49,0,0,1,.26-.25.43.43,0,0,1,.35,0l15.41,6.52a4.49,4.49,0,1,1,5.46,6.6A4.4,4.4,0,0,1,113.28,66.08Zm-4.42-5.56.12,0a4.25,4.25,0,1,0,.5-1.18l-.11-.06-.05.11L93.81,52.86a.22.22,0,0,0-.16,0,.28.28,0,0,0-.12.12l-.24.58a.15.15,0,0,0,0,.16.19.19,0,0,0,.11.12l15.51,6.56Z"/><path class="cls-1" d="M111.14,38.77l-16.4,3.81a.36.36,0,0,1-.41-.26l-.14-.61a.34.34,0,0,1,.25-.41l16.41-3.81m0,0a4.34,4.34,0,1,1,.29,1.28"/><path class="cls-2" d="M111.14,38.77l-16.4,3.81a.36.36,0,0,1-.41-.26l-.14-.61a.34.34,0,0,1,.25-.41l16.41-3.81m0,0a4.34,4.34,0,1,1,.29,1.28"/><path class="cls-1" d="M99.17,19a4.37,4.37,0,1,1,1,.84m0,0L89.33,32.67a.35.35,0,0,1-.48,0l-.48-.41a.33.33,0,0,1-.05-.47L99.17,19"/><path class="cls-1" d="M89.09,32.92a.52.52,0,0,1-.32-.11l-.48-.41a.45.45,0,0,1-.06-.65L99,19a4.5,4.5,0,1,1,1.19,1L89.42,32.75a.47.47,0,0,1-.31.16ZM99.17,19l.1.08L88.42,31.91a.21.21,0,0,0,0,.15.22.22,0,0,0,.08.15l.48.41a.25.25,0,0,0,.15.05h0a.21.21,0,0,0,.14-.07l10.85-12.88.09.08.07-.11a4.25,4.25,0,1,0-1-.82Z"/><path class="cls-1" d="M69.71,19.64a3.51,3.51,0,1,1,1.28-.3m0,0,2,8.59a.33.33,0,0,1-.25.4l-.62.15a.34.34,0,0,1-.4-.26l-2-8.58"/><path class="cls-1" d="M72.06,28.61a.5.5,0,0,1-.27-.07.47.47,0,0,1-.21-.29l-2-8.49a3.62,3.62,0,1,1,1.52-.35l2,8.49a.48.48,0,0,1,0,.35.51.51,0,0,1-.29.21l-.62.14Zm-2.23-9,2,8.58a.19.19,0,0,0,.09.14.2.2,0,0,0,.17,0l.61-.14a.24.24,0,0,0,.13-.09.25.25,0,0,0,0-.17l-2-8.58.12,0,0-.12a3.37,3.37,0,1,0-1.23.29v.13Z"/><path class="cls-1" d="M55.44,28.71a3.49,3.49,0,1,1,.86-1m0,0L63,33.49A.34.34,0,0,1,63,34l-.41.48a.34.34,0,0,1-.48,0l-6.66-5.77"/><path class="cls-1" d="M62.35,34.69a.49.49,0,0,1-.33-.11l-6.58-5.71a3.63,3.63,0,0,1-4.53-.17,3.62,3.62,0,0,1-.37-5.1,3.62,3.62,0,0,1,5.92,4.09L63,33.4a.43.43,0,0,1,.16.31.45.45,0,0,1-.11.34l-.41.48A.49.49,0,0,1,62.35,34.69Zm-6.83-6.08,6.66,5.78a.24.24,0,0,0,.31,0l.41-.48a.18.18,0,0,0,.05-.16.19.19,0,0,0-.07-.14l-6.66-5.78.08-.09-.11-.07a3.37,3.37,0,0,0-5.46-3.89,3.38,3.38,0,0,0,.35,4.76,3.36,3.36,0,0,0,4.28.09l.08.1Z"/><path class="cls-1" d="M96.77,64.55l-6.66-5.78a.34.34,0,0,1,0-.48l.41-.48a.34.34,0,0,1,.48,0l6.66,5.77m0,0a3.5,3.5,0,1,1-.12,5.39,3.47,3.47,0,0,1-.74-4.39"/><path class="cls-2" d="M96.77,64.55l-6.66-5.78a.34.34,0,0,1,0-.48l.41-.48a.34.34,0,0,1,.48,0l6.66,5.77m0,0a3.5,3.5,0,1,1-.12,5.39,3.47,3.47,0,0,1-.74-4.39"/><path class="cls-1" d="M103.73,49.13,95,48.38a.34.34,0,0,1-.31-.37l0-.63a.34.34,0,0,1,.37-.31l8.78.76m0,0a3.5,3.5,0,1,1-.11,1.3"/><path class="cls-1" d="M107.37,52.39a2.48,2.48,0,0,1-.47,0,3.61,3.61,0,0,1-3.28-3.13l-8.68-.75a.47.47,0,0,1-.32-.16.48.48,0,0,1-.11-.34l.06-.63a.46.46,0,0,1,.5-.42l8.68.74a3.62,3.62,0,0,1,7.06,1.39,3.62,3.62,0,0,1-3.44,3.31Zm-3.51-3.27a3.34,3.34,0,1,0,.1-1.26l-.12,0V48l-8.78-.76a.3.3,0,0,0-.16.05.21.21,0,0,0-.07.15l-.06.63a.21.21,0,0,0,.2.23l8.78.76v.12Z"/><path class="cls-1" d="M99.63,31.45a3.48,3.48,0,1,1,.67,1.12m0,0-7.55,4.55a.34.34,0,0,1-.47-.11L92,36.47a.34.34,0,0,1,.12-.47l7.55-4.55"/><path class="cls-1" d="M92.6,37.3a.34.34,0,0,1-.14,0,.43.43,0,0,1-.28-.21l-.33-.54a.47.47,0,0,1,.16-.64l7.46-4.49a3.64,3.64,0,1,1,.81,1.33l-7.46,4.5A.57.57,0,0,1,92.6,37.3Zm7-5.85.06.11-7.55,4.55a.26.26,0,0,0-.1.13.21.21,0,0,0,0,.16l.32.54a.21.21,0,0,0,.13.1.25.25,0,0,0,.17,0l7.55-4.55.06.1.1-.08a3.35,3.35,0,1,0-.66-1.08Z"/><path class="cls-1" d="M86.59,20.68a3.5,3.5,0,1,1,1.21.51m0,0-3.44,8.12a.32.32,0,0,1-.44.18l-.59-.24a.35.35,0,0,1-.18-.45l3.44-8.12"/><path class="cls-1" d="M84.07,29.65a.45.45,0,0,1-.2,0l-.58-.25a.41.41,0,0,1-.25-.25.45.45,0,0,1,0-.36l3.39-8a3.62,3.62,0,1,1,1.44.61l-3.39,8a.46.46,0,0,1-.26.25Zm2.52-9,.11.05-3.43,8.12a.25.25,0,0,0,0,.17.2.2,0,0,0,.11.11l.58.25a.25.25,0,0,0,.17,0,.23.23,0,0,0,.12-.12l3.43-8.11.12,0,0-.12a3.36,3.36,0,0,0,3.83-4.56,3.33,3.33,0,0,0-1.81-1.84,3.37,3.37,0,0,0-3.18,5.91Z"/><path class="cls-1" d="M19.61,60.11H18.5A1.38,1.38,0,0,1,17,58.59V54.74c0-3.91-1.58-5.6-5.25-5.6s-5.25,1.69-5.25,5.6V57.6c0,2.74.93,3.56,3.67,5.08L16,65.89c3.15,1.75,5.25,3.91,5.25,7.35v5.43c0,6-3.21,8.52-9.39,8.52h-.12c-6.19,0-9.4-2.51-9.4-8.52V73.42A1.36,1.36,0,0,1,3.85,71.9H5a1.38,1.38,0,0,1,1.52,1.52v4.31c0,3.86,1.57,5.72,5.31,5.72s5.31-1.86,5.31-5.72V74.47c0-2.75-1.05-3.8-3.85-5.37L7.53,65.94c-3.56-2-5.2-3.67-5.2-7.23V53.8c0-5.71,3.74-8.4,9.34-8.4h.12c5.6,0,9.33,2.69,9.33,8.4v4.79A1.36,1.36,0,0,1,19.61,60.11Z"/><path class="cls-1" d="M40.58,65.48c3.79.58,4.79,3.67,4.79,6.48v6.71c0,4.78-3.27,8-9.46,8H27.57a1.35,1.35,0,0,1-1.52-1.52V47.38a1.35,1.35,0,0,1,1.52-1.51H36c6.18,0,9.1,3.27,9.1,8.05v5.14C45.13,61.8,44.14,65.13,40.58,65.48ZM30.25,63.73h5.66c3.27,0,5-1.29,5-4.15V54.86c0-3.51-1.4-5.26-5-5.26H30.25Zm5.9,3.73h-5.9V83h5.9c3.61,0,5-1.75,5-5.26V71.61C41.16,68.75,39.41,67.46,36.15,67.46Z"/><path class="cls-1" d="M69.52,54.51V78.08c0,5.84-3.39,8.64-9.58,8.64H51.71A1.35,1.35,0,0,1,50.2,85.2V47.38a1.35,1.35,0,0,1,1.51-1.51h8.23C66.13,45.87,69.52,48.67,69.52,54.51Zm-9.81-4.85H54.4V82.93h5.31c3.91,0,5.6-1.64,5.6-5.9V55.56C65.31,51.3,63.62,49.66,59.71,49.66Z"/><path class="cls-1" d="M77,86.72H75.86a1.35,1.35,0,0,1-1.51-1.52V47.38a1.35,1.35,0,0,1,1.51-1.51H77a1.4,1.4,0,0,1,1.58,1.51V85.2A1.4,1.4,0,0,1,77,86.72Z"/></svg>